<?xml version="1.0" standalone="no"?>
<!DOCTYPE svg PUBLIC "-//W3C//DTD SVG 20010904//EN"
 "http://www.w3.org/TR/2001/REC-SVG-20010904/DTD/svg10.dtd">
<svg version="1.0" xmlns="http://www.w3.org/2000/svg"
 width="179.000000pt" height="178.000000pt" viewBox="0 0 179.000000 178.000000"
 preserveAspectRatio="xMidYMid meet">
<metadata>
Created by potrace 1.16, written by Peter Selinger 2001-2019
</metadata>
<g transform="translate(0.000000,178.000000) scale(0.100000,-0.100000)"
fill="#000000" stroke="none">
<path d="M758 1740 c-351 -56 -641 -333 -712 -682 -97 -470 214 -933 684
-1022 387 -74 770 118 940 469 71 147 85 211 84 385 -1 127 -4 156 -28 233
-91 301 -313 517 -612 597 -90 24 -267 34 -356 20z m283 -36 c84 -16 234 -68
244 -84 3 -5 -12 -18 -34 -29 l-40 -21 -148 36 c-142 34 -149 36 -170 69 -13
19 -23 37 -23 40 0 10 90 5 171 -11z m21 -130 l157 -37 46 -130 c37 -105 43
-133 33 -142 -7 -6 -51 -44 -98 -85 -47 -41 -95 -82 -106 -93 -21 -18 -24 -18
-135 8 -63 15 -118 31 -124 36 -5 6 -35 74 -66 152 l-56 142 91 93 c50 50 93
92 96 92 3 0 76 -16 162 -36z m-699 -124 c5 -30 -5 -54 -76 -179 l-82 -145
-54 -13 c-29 -8 -55 -12 -57 -10 -6 6 30 106 56 157 35 68 78 129 139 193 58
61 64 61 74 -3z m381 -186 c31 -81 55 -150 54 -154 -2 -3 -30 -52 -63 -108
l-60 -101 -70 -5 c-38 -3 -110 -7 -159 -8 l-89 -3 -53 85 c-29 47 -58 95 -65
106 -10 19 0 41 72 172 l84 151 115 3 c63 2 129 5 146 6 l31 2 57 -146z m694
-28 c53 -13 109 -27 123 -30 l26 -6 7 -157 c4 -87 9 -180 12 -208 l5 -50 -112
-71 -111 -72 -137 79 -136 79 -10 121 -10 121 120 109 c66 59 121 108 123 108
2 1 47 -10 100 -23z m264 -144 c16 -59 21 -109 22 -209 1 -76 -3 -136 -9 -142
-7 -6 -21 0 -42 18 l-32 26 -12 213 c-9 173 -9 215 2 228 11 14 15 11 31 -21
11 -20 29 -71 40 -113z m-944 -315 l80 -94 -38 -154 -38 -154 -113 -27 c-63
-15 -124 -27 -136 -25 -14 1 -62 50 -136 136 l-114 133 50 122 c27 66 53 124
56 128 4 4 65 12 136 16 72 5 139 10 151 11 15 1 44 -26 102 -92z m485 -88
c67 -40 123 -73 124 -73 1 -1 -3 -62 -10 -136 l-12 -133 -170 -72 c-93 -40
-174 -69 -180 -65 -5 4 -53 41 -106 84 l-97 76 38 151 c21 83 40 152 42 154
13 12 226 93 236 90 7 -3 68 -37 135 -76z m-888 -255 l126 -146 -7 -57 c-3
-31 -8 -58 -9 -59 -6 -7 -112 77 -164 129 -29 30 -70 79 -91 109 -34 51 -90
152 -90 165 0 3 25 5 55 5 l54 0 126 -146z m1055 -138 l52 -24 -58 -46 c-105
-82 -221 -134 -359 -161 -38 -7 -71 -12 -73 -10 -2 1 8 29 20 61 l24 58 169
72 c94 40 171 73 172 73 0 1 24 -10 53 -23z"/>
</g>
</svg>
