<svg xmlns="http://www.w3.org/2000/svg" xmlns:xlink="http://www.w3.org/1999/xlink" width="884" zoomAndPan="magnify" viewBox="0 0 663 230.249992" height="307" preserveAspectRatio="xMidYMid meet" version="1.0"><defs><clipPath id="e58465510e"><path d="M 182.804688 124.535156 L 223.148438 124.535156 L 223.148438 181.996094 L 182.804688 181.996094 Z M 182.804688 124.535156 " clip-rule="nonzero"/></clipPath><clipPath id="3e9ee58aba"><path d="M 182.804688 169.960938 L 189.972656 165.355469 C 194.171875 170.804688 197.640625 174.710938 204.976562 174.710938 C 212.238281 174.710938 214.621094 169.335938 214.621094 167.117188 C 214.621094 156.078125 187.992188 155.453125 187.992188 139.808594 C 187.992188 129.980469 196.246094 124.625 205.964844 124.625 C 211.816406 124.625 217.921875 127.007812 221.882812 130.382812 L 216.199219 135.976562 C 213.15625 133.375 209.359375 131.6875 206.058594 131.6875 C 201.105469 131.6875 196.484375 135.207031 196.484375 139.976562 C 196.484375 148.960938 223.023438 152.867188 223.023438 166.144531 C 223.023438 175.8125 213.046875 181.953125 204.644531 181.953125 C 195.421875 181.953125 187.589844 176.359375 182.804688 169.980469 " clip-rule="nonzero"/></clipPath><clipPath id="ffa835aa3d"><path d="M 231.097656 125.144531 L 272 125.144531 L 272 181.996094 L 231.097656 181.996094 Z M 231.097656 125.144531 " clip-rule="nonzero"/></clipPath><clipPath id="3edc19bb9a"><path d="M 255.757812 131.90625 L 255.757812 181.460938 L 247.429688 181.460938 L 247.429688 131.90625 L 231.511719 131.90625 L 232.339844 125.230469 L 270.832031 125.230469 L 271.65625 131.90625 L 255.757812 131.90625 " clip-rule="nonzero"/></clipPath><clipPath id="01ab495b5c"><path d="M 281.226562 125.144531 L 320.960938 125.144531 L 320.960938 182.609375 L 281.226562 182.609375 Z M 281.226562 125.144531 " clip-rule="nonzero"/></clipPath><clipPath id="63cff121f3"><path d="M 320.625 164.824219 C 320.699219 173.886719 312.207031 182.394531 301.164062 182.394531 C 291.1875 182.394531 281.707031 174.417969 281.871094 164.128906 L 281.871094 125.230469 L 290.199219 125.230469 L 290.199219 163.980469 C 290.199219 169.355469 294.894531 174.488281 301.074219 174.488281 C 306.925781 174.488281 312.609375 169.648438 312.535156 163.980469 L 312.535156 125.230469 L 320.625 125.230469 L 320.625 164.824219 " clip-rule="nonzero"/></clipPath><clipPath id="89ddb01f53"><path d="M 333.1875 125 L 383.925781 125 L 383.925781 181.996094 L 333.1875 181.996094 Z M 333.1875 125 " clip-rule="nonzero"/></clipPath><clipPath id="9f79206cd7"><path d="M 349.308594 174.25 C 362.65625 174.25 374.855469 167.265625 374.855469 153.382812 C 374.855469 141.40625 365.703125 132.511719 349.308594 132.511719 L 341.640625 132.511719 L 341.640625 174.25 L 349.308594 174.25 M 353.339844 125.210938 C 369.332031 125.140625 383.765625 137.644531 383.765625 153.382812 C 383.765625 168.273438 370.160156 181.460938 353.339844 181.460938 L 333.316406 181.460938 L 333.316406 125.230469 L 353.339844 125.210938 " clip-rule="nonzero"/></clipPath><clipPath id="3ddc43e13d"><path d="M 394.550781 125.230469 L 402.875 125.230469 L 402.875 181.460938 L 394.550781 181.460938 Z M 394.550781 125.230469 " clip-rule="nonzero"/></clipPath><clipPath id="3c9d26902b"><path d="M 413.269531 124.535156 L 476.234375 124.535156 L 476.234375 182.609375 L 413.269531 182.609375 Z M 413.269531 124.535156 " clip-rule="nonzero"/></clipPath><clipPath id="d0fa99e2df"><path d="M 445.074219 175.554688 C 458.023438 175.554688 468 164.203125 468 153.453125 C 468 141.644531 456.960938 131.429688 445.074219 131.429688 C 432.382812 131.429688 421.984375 142.324219 421.984375 153.453125 C 421.984375 165.355469 433.117188 175.554688 445.074219 175.554688 M 413.84375 153.453125 C 413.84375 137.113281 428.773438 124.535156 445.09375 124.535156 C 462.480469 124.535156 476.179688 138.34375 476.179688 153.453125 C 476.179688 169.648438 461.175781 182.46875 445.09375 182.46875 C 427.707031 182.46875 413.84375 168.660156 413.84375 153.453125 " clip-rule="nonzero"/></clipPath><clipPath id="ce702a4916"><path d="M 47.625 47.488281 L 84 47.488281 L 84 104 L 47.625 104 Z M 47.625 47.488281 " clip-rule="nonzero"/></clipPath><clipPath id="8430b9e918"><path d="M 83.808594 93.53125 L 82.984375 103.894531 L 47.625 103.894531 L 47.625 47.648438 L 62.058594 47.648438 L 62.058594 93.53125 L 83.808594 93.53125 " clip-rule="nonzero"/></clipPath><clipPath id="e6ff89a31c"><path d="M 94.28125 47.648438 L 108.621094 47.648438 L 108.621094 103.894531 L 94.28125 103.894531 Z M 94.28125 47.648438 " clip-rule="nonzero"/></clipPath><clipPath id="1686eb5f64"><path d="M 118 46.875 L 180.28125 46.875 L 180.28125 104.953125 L 118 104.953125 Z M 118 46.875 " clip-rule="nonzero"/></clipPath><clipPath id="b567386d79"><path d="M 149.097656 94.449219 C 158.742188 94.449219 164.851562 84.324219 164.851562 75.722656 C 164.851562 67.214844 158.578125 57 149.097656 57 C 139.613281 57 133.34375 67.050781 133.34375 75.722656 C 133.34375 84.617188 139.613281 94.449219 149.097656 94.449219 M 118.101562 75.722656 C 118.101562 60.226562 132.1875 46.875 149.097656 46.875 C 165.75 46.875 180.089844 59.988281 180.089844 75.722656 C 180.089844 91.769531 166.316406 104.574219 149.097656 104.574219 C 132.445312 104.574219 118.101562 91.53125 118.101562 75.722656 " clip-rule="nonzero"/></clipPath><clipPath id="31f82df5e2"><path d="M 189.449219 47.488281 L 236.519531 47.488281 L 236.519531 104 L 189.449219 104 Z M 189.449219 47.488281 " clip-rule="nonzero"/></clipPath><clipPath id="0d2fd97161"><path d="M 236.300781 103.894531 L 234.15625 103.894531 L 203.582031 77.945312 L 203.582031 103.894531 L 189.71875 103.894531 L 189.71875 47.648438 L 191.863281 47.648438 L 222.453125 75.121094 L 222.453125 47.648438 L 236.300781 47.648438 L 236.300781 103.894531 " clip-rule="nonzero"/></clipPath><clipPath id="ad7c41be69"><path d="M 248.136719 47.488281 L 282.980469 47.488281 L 282.980469 104 L 248.136719 104 Z M 248.136719 47.488281 " clip-rule="nonzero"/></clipPath><clipPath id="39d41ca91e"><path d="M 263.09375 93.53125 L 282.460938 93.53125 L 281.636719 103.894531 L 248.734375 103.894531 L 248.734375 47.648438 L 281.636719 47.648438 L 282.460938 58.007812 L 263.09375 58.007812 L 263.09375 75.429688 L 279.179688 75.429688 L 278.351562 84.875 L 263.09375 84.875 L 263.09375 93.53125 " clip-rule="nonzero"/></clipPath><clipPath id="e8df81c2e4"><path d="M 289.707031 47 L 331.886719 47 L 331.886719 104.953125 L 289.707031 104.953125 Z M 289.707031 47 " clip-rule="nonzero"/></clipPath><clipPath id="afa357d9b9"><path d="M 289.871094 92.523438 L 299.921875 85.996094 C 302.964844 89.972656 306.359375 94.667969 311.949219 94.667969 C 315.984375 94.667969 318.132812 91.753906 318.132812 89.296875 C 318.132812 80.164062 293.976562 78.714844 293.976562 62.59375 C 293.976562 52.855469 302.800781 47.023438 313.269531 47.023438 C 319.121094 47.023438 325.46875 49.242188 329.757812 53 L 321.339844 61.363281 C 319.285156 59.605469 316.316406 57.21875 313.269531 57.21875 C 310.300781 57.21875 307.660156 59.292969 307.660156 62.207031 C 307.660156 70.332031 331.722656 73.175781 331.722656 87.992188 C 331.722656 97.804688 322.40625 104.40625 312.097656 104.40625 C 302.453125 104.40625 295.609375 99.34375 289.832031 92.523438 " clip-rule="nonzero"/></clipPath><clipPath id="0f0a12952c"><path d="M 337 47 L 379.570312 47 L 379.570312 104.953125 L 337 104.953125 Z M 337 47 " clip-rule="nonzero"/></clipPath><clipPath id="5b7ae1b264"><path d="M 337.351562 92.523438 L 347.402344 85.996094 C 350.445312 89.972656 353.839844 94.667969 359.433594 94.667969 C 363.464844 94.667969 365.613281 91.753906 365.613281 89.296875 C 365.613281 80.164062 341.460938 78.714844 341.460938 62.59375 C 341.460938 52.855469 350.28125 47.023438 360.753906 47.023438 C 366.601562 47.023438 372.949219 49.242188 377.238281 53 L 368.820312 61.363281 C 366.769531 59.605469 363.796875 57.21875 360.753906 57.21875 C 357.78125 57.21875 355.140625 59.292969 355.140625 62.207031 C 355.140625 70.332031 379.203125 73.175781 379.203125 87.992188 C 379.203125 97.804688 369.886719 104.40625 359.578125 104.40625 C 349.933594 104.40625 343.089844 99.34375 337.316406 92.523438 " clip-rule="nonzero"/></clipPath><clipPath id="736d547151"><path d="M 384 47.488281 L 436 47.488281 L 436 104 L 384 104 Z M 384 47.488281 " clip-rule="nonzero"/></clipPath><clipPath id="ede1644a8f"><path d="M 414.175781 87.316406 L 408.5625 74.277344 L 402.878906 87.316406 L 414.175781 87.316406 M 384.335938 103.894531 L 408.726562 47.648438 L 411.609375 47.648438 L 436 103.894531 L 421.328125 103.894531 L 418.117188 96.613281 L 398.917969 96.613281 L 395.707031 103.894531 L 384.335938 103.894531 " clip-rule="nonzero"/></clipPath><clipPath id="b3d7e10df4"><path d="M 441 47.488281 L 489.605469 47.488281 L 489.605469 104 L 441 104 Z M 441 47.488281 " clip-rule="nonzero"/></clipPath><clipPath id="d8c737d3d9"><path d="M 462.71875 93.53125 L 486.046875 93.53125 L 485.222656 103.894531 L 441.117188 103.894531 L 467.324219 58.007812 L 445.242188 58.007812 L 446.066406 47.648438 L 489.019531 47.648438 L 462.71875 93.53125 " clip-rule="nonzero"/></clipPath><clipPath id="8cd49d4892"><path d="M 493 47.488281 L 545 47.488281 L 545 104 L 493 104 Z M 493 47.488281 " clip-rule="nonzero"/></clipPath><clipPath id="d96c7f56ea"><path d="M 522.890625 87.316406 L 517.28125 74.277344 L 511.59375 87.316406 L 522.890625 87.316406 M 493.054688 103.894531 L 517.445312 47.648438 L 520.324219 47.648438 L 544.714844 103.894531 L 530.042969 103.894531 L 526.835938 96.613281 L 507.632812 96.613281 L 504.421875 103.894531 L 493.054688 103.894531 " clip-rule="nonzero"/></clipPath><clipPath id="825699d6a7"><path d="M 552.570312 47.488281 L 565 47.488281 L 565 65 L 552.570312 65 Z M 552.570312 47.488281 " clip-rule="nonzero"/></clipPath><clipPath id="ebd0a28e85"><path d="M 564.851562 53.167969 C 564.851562 58.539062 559.496094 63.75 554.472656 64.832031 L 554.472656 61.144531 C 555.554688 60.925781 556.949219 59.988281 557.679688 58.613281 C 555.132812 58.082031 552.894531 56.007812 552.894531 53.167969 C 552.894531 50.105469 555.609375 47.574219 558.910156 47.574219 C 562.210938 47.574219 564.851562 50.105469 564.851562 53.167969 " clip-rule="nonzero"/></clipPath><clipPath id="62b9ee47fa"><path d="M 573.355469 47 L 615.535156 47 L 615.535156 104.953125 L 573.355469 104.953125 Z M 573.355469 47 " clip-rule="nonzero"/></clipPath><clipPath id="16262c2003"><path d="M 573.488281 92.523438 L 583.539062 85.996094 C 586.585938 89.972656 589.976562 94.667969 595.570312 94.667969 C 599.605469 94.667969 601.75 91.753906 601.75 89.296875 C 601.75 80.164062 577.597656 78.714844 577.597656 62.59375 C 577.597656 52.855469 586.417969 47.023438 596.890625 47.023438 C 602.742188 47.023438 609.085938 49.242188 613.378906 53 L 604.960938 61.363281 C 602.90625 59.605469 599.9375 57.21875 596.890625 57.21875 C 593.921875 57.21875 591.28125 59.292969 591.28125 62.207031 C 591.28125 70.332031 615.339844 73.175781 615.339844 87.992188 C 615.339844 97.804688 606.023438 104.40625 595.71875 104.40625 C 586.070312 104.40625 579.230469 99.34375 573.453125 92.523438 " clip-rule="nonzero"/></clipPath></defs><g clip-path="url(#e58465510e)"><g clip-path="url(#3e9ee58aba)"><path fill="#ffffff" d="M 173.632812 115.363281 L 485.402344 115.363281 L 485.402344 191.777344 L 173.632812 191.777344 Z M 173.632812 115.363281 " fill-opacity="1" fill-rule="nonzero"/></g></g><g clip-path="url(#ffa835aa3d)"><g clip-path="url(#3edc19bb9a)"><path fill="#ffffff" d="M 173.632812 115.363281 L 485.402344 115.363281 L 485.402344 191.777344 L 173.632812 191.777344 Z M 173.632812 115.363281 " fill-opacity="1" fill-rule="nonzero"/></g></g><g clip-path="url(#01ab495b5c)"><g clip-path="url(#63cff121f3)"><path fill="#ffffff" d="M 173.632812 115.363281 L 485.402344 115.363281 L 485.402344 191.777344 L 173.632812 191.777344 Z M 173.632812 115.363281 " fill-opacity="1" fill-rule="nonzero"/></g></g><g clip-path="url(#89ddb01f53)"><g clip-path="url(#9f79206cd7)"><path fill="#ffffff" d="M 173.632812 115.363281 L 485.402344 115.363281 L 485.402344 191.777344 L 173.632812 191.777344 Z M 173.632812 115.363281 " fill-opacity="1" fill-rule="nonzero"/></g></g><g clip-path="url(#3ddc43e13d)"><path fill="#ffffff" d="M 173.632812 115.363281 L 485.402344 115.363281 L 485.402344 191.777344 L 173.632812 191.777344 Z M 173.632812 115.363281 " fill-opacity="1" fill-rule="nonzero"/></g><g clip-path="url(#3c9d26902b)"><g clip-path="url(#d0fa99e2df)"><path fill="#ffffff" d="M 173.632812 115.363281 L 485.402344 115.363281 L 485.402344 191.777344 L 173.632812 191.777344 Z M 173.632812 115.363281 " fill-opacity="1" fill-rule="nonzero"/></g></g><g clip-path="url(#ce702a4916)"><g clip-path="url(#8430b9e918)"><path fill="#ffffff" d="M 38.453125 37.707031 L 624.707031 37.707031 L 624.707031 113.511719 L 38.453125 113.511719 Z M 38.453125 37.707031 " fill-opacity="1" fill-rule="nonzero"/></g></g><g clip-path="url(#e6ff89a31c)"><path fill="#ffffff" d="M 38.453125 37.707031 L 624.707031 37.707031 L 624.707031 113.511719 L 38.453125 113.511719 Z M 38.453125 37.707031 " fill-opacity="1" fill-rule="nonzero"/></g><g clip-path="url(#1686eb5f64)"><g clip-path="url(#b567386d79)"><path fill="#ffffff" d="M 38.453125 37.707031 L 624.707031 37.707031 L 624.707031 113.511719 L 38.453125 113.511719 Z M 38.453125 37.707031 " fill-opacity="1" fill-rule="nonzero"/></g></g><g clip-path="url(#31f82df5e2)"><g clip-path="url(#0d2fd97161)"><path fill="#ffffff" d="M 38.453125 37.707031 L 624.707031 37.707031 L 624.707031 113.511719 L 38.453125 113.511719 Z M 38.453125 37.707031 " fill-opacity="1" fill-rule="nonzero"/></g></g><g clip-path="url(#ad7c41be69)"><g clip-path="url(#39d41ca91e)"><path fill="#ffffff" d="M 38.453125 37.707031 L 624.707031 37.707031 L 624.707031 113.511719 L 38.453125 113.511719 Z M 38.453125 37.707031 " fill-opacity="1" fill-rule="nonzero"/></g></g><g clip-path="url(#e8df81c2e4)"><g clip-path="url(#afa357d9b9)"><path fill="#ffffff" d="M 38.453125 37.707031 L 624.707031 37.707031 L 624.707031 113.511719 L 38.453125 113.511719 Z M 38.453125 37.707031 " fill-opacity="1" fill-rule="nonzero"/></g></g><g clip-path="url(#0f0a12952c)"><g clip-path="url(#5b7ae1b264)"><path fill="#ffffff" d="M 38.453125 37.707031 L 624.707031 37.707031 L 624.707031 113.511719 L 38.453125 113.511719 Z M 38.453125 37.707031 " fill-opacity="1" fill-rule="nonzero"/></g></g><g clip-path="url(#736d547151)"><g clip-path="url(#ede1644a8f)"><path fill="#ffffff" d="M 38.453125 37.707031 L 624.707031 37.707031 L 624.707031 113.511719 L 38.453125 113.511719 Z M 38.453125 37.707031 " fill-opacity="1" fill-rule="nonzero"/></g></g><g clip-path="url(#b3d7e10df4)"><g clip-path="url(#d8c737d3d9)"><path fill="#ffffff" d="M 38.453125 37.707031 L 624.707031 37.707031 L 624.707031 113.511719 L 38.453125 113.511719 Z M 38.453125 37.707031 " fill-opacity="1" fill-rule="nonzero"/></g></g><g clip-path="url(#8cd49d4892)"><g clip-path="url(#d96c7f56ea)"><path fill="#ffffff" d="M 38.453125 37.707031 L 624.707031 37.707031 L 624.707031 113.511719 L 38.453125 113.511719 Z M 38.453125 37.707031 " fill-opacity="1" fill-rule="nonzero"/></g></g><g clip-path="url(#825699d6a7)"><g clip-path="url(#ebd0a28e85)"><path fill="#ffffff" d="M 38.453125 37.707031 L 624.707031 37.707031 L 624.707031 113.511719 L 38.453125 113.511719 Z M 38.453125 37.707031 " fill-opacity="1" fill-rule="nonzero"/></g></g><g clip-path="url(#62b9ee47fa)"><g clip-path="url(#16262c2003)"><path fill="#ffffff" d="M 38.453125 37.707031 L 624.707031 37.707031 L 624.707031 113.511719 L 38.453125 113.511719 Z M 38.453125 37.707031 " fill-opacity="1" fill-rule="nonzero"/></g></g></svg>