<svg width="529" height="43" viewBox="0 0 529 43" fill="none" xmlns="http://www.w3.org/2000/svg">
<path d="M22.4045 40.3067C16.0751 40.3067 11.0456 38.3525 7.61452 35.1077C4.19358 31.8725 2.19115 27.1952 2.19115 21.4H-1.80885C-1.80885 28.1581 0.552043 33.9341 4.8661 38.0139C9.17004 42.0842 15.2472 44.3067 22.4045 44.3067V40.3067ZM2.19115 21.4C2.19115 15.6048 4.19358 10.9275 7.61452 7.69228C11.0456 4.44753 16.0751 2.49333 22.4045 2.49333V-1.50667C15.2472 -1.50667 9.17004 0.715805 4.8661 4.78605C0.552043 8.86586 -1.80885 14.6419 -1.80885 21.4H2.19115ZM22.4045 2.49333C28.7339 2.49333 33.7634 4.44753 37.1944 7.69228C40.6154 10.9275 42.6178 15.6048 42.6178 21.4H46.6178C46.6178 14.6419 44.2569 8.86586 39.9429 4.78605C35.6389 0.715805 29.5617 -1.50667 22.4045 -1.50667V2.49333ZM42.6178 21.4C42.6178 27.1952 40.6154 31.8725 37.1944 35.1077C33.7634 38.3525 28.7339 40.3067 22.4045 40.3067V44.3067C29.5617 44.3067 35.6389 42.0842 39.9429 38.0139C44.2569 33.9341 46.6178 28.1581 46.6178 21.4H42.6178ZM22.4045 33.1533C25.4328 33.1533 28.2984 32.1027 30.4164 30.0354C32.5477 27.9552 33.7845 24.98 33.7845 21.4H29.7845C29.7845 24.0267 28.8979 25.9281 27.6225 27.1729C26.3339 28.4307 24.5095 29.1533 22.4045 29.1533V33.1533ZM33.7845 21.4C33.7845 17.82 32.5477 14.8448 30.4164 12.7646C28.2984 10.6973 25.4328 9.64667 22.4045 9.64667V13.6467C24.5095 13.6467 26.3339 14.3693 27.6225 15.6271C28.8979 16.8719 29.7845 18.7733 29.7845 21.4H33.7845ZM22.4045 9.64667C19.3762 9.64667 16.5105 10.6973 14.3925 12.7646C12.2612 14.8448 11.0245 17.82 11.0245 21.4H15.0245C15.0245 18.7733 15.9111 16.8719 17.1864 15.6271C18.4751 14.3693 20.2994 13.6467 22.4045 13.6467V9.64667ZM11.0245 21.4C11.0245 24.98 12.2612 27.9552 14.3925 30.0354C16.5105 32.1027 19.3762 33.1533 22.4045 33.1533V29.1533C20.2994 29.1533 18.4751 28.4307 17.1864 27.1729C15.9111 25.9281 15.0245 24.0267 15.0245 21.4H11.0245ZM47.2115 1.8V-0.199997H45.2115V1.8H47.2115ZM60.2315 1.8H62.2315V-0.199997H60.2315V1.8ZM74.8848 1.8V-0.199997H72.8848V1.8H74.8848ZM87.8115 1.8H89.8115V-0.199997H87.8115V1.8ZM67.5115 40.3067C61.0024 40.3067 56.5021 38.9143 53.6335 36.3617C50.8122 33.8512 49.2115 29.894 49.2115 23.92H45.2115C45.2115 30.5927 47.0173 35.8287 50.9744 39.3499C54.8842 42.829 60.5339 44.3067 67.5115 44.3067V40.3067ZM49.2115 23.92V1.8H45.2115V23.92H49.2115ZM47.2115 3.8H60.2315V-0.199997H47.2115V3.8ZM58.2315 1.8V23.5933H62.2315V1.8H58.2315ZM58.2315 23.5933C58.2315 26.2727 58.8187 28.794 60.4325 30.6636C62.0936 32.5878 64.5419 33.48 67.5115 33.48V29.48C65.3477 29.48 64.1559 28.8555 63.4604 28.0498C62.7176 27.1893 62.2315 25.7673 62.2315 23.5933H58.2315ZM67.5115 33.48C70.48 33.48 72.9421 32.5891 74.6243 30.6782C76.2659 28.8134 76.8848 26.2909 76.8848 23.5933H72.8848C72.8848 25.7491 72.3837 27.1699 71.622 28.0351C70.9009 28.8542 69.6762 29.48 67.5115 29.48V33.48ZM76.8848 23.5933V1.8H72.8848V23.5933H76.8848ZM74.8848 3.8H87.8115V-0.199997H74.8848V3.8ZM85.8115 1.8V23.8267H89.8115V1.8H85.8115ZM85.8115 23.8267C85.8115 29.8515 84.2083 33.832 81.3866 36.3526C78.5189 38.9143 74.0207 40.3067 67.5115 40.3067V44.3067C74.4888 44.3067 80.1407 42.8291 84.0513 39.3357C88.008 35.8013 89.8115 30.5418 89.8115 23.8267H85.8115ZM131.811 41V43H135.174L133.568 40.045L131.811 41ZM119.118 41L117.347 41.9301L117.909 43H119.118V41ZM113.798 30.8733L115.568 29.9432L115.006 28.8733H113.798V30.8733ZM103.997 30.8733V28.8733H101.997V30.8733H103.997ZM103.997 41V43H105.997V41H103.997ZM91.0708 41H89.0708V43H91.0708V41ZM91.0708 1.8V-0.199997H89.0708V1.8H91.0708ZM124.811 28.12L123.659 26.4848L122.203 27.5102L123.054 29.075L124.811 28.12ZM103.997 12.5333V10.5333H101.997V12.5333H103.997ZM103.997 21.2133H101.997V23.2133H103.997V21.2133ZM131.811 39H119.118V43H131.811V39ZM120.888 40.0699L115.568 29.9432L112.027 31.8035L117.347 41.9301L120.888 40.0699ZM113.798 28.8733H103.997V32.8733H113.798V28.8733ZM101.997 30.8733V41H105.997V30.8733H101.997ZM103.997 39H91.0708V43H103.997V39ZM93.0708 41V1.8H89.0708V41H93.0708ZM91.0708 3.8H113.518V-0.199997H91.0708V3.8ZM113.518 3.8C118.714 3.8 122.412 4.92157 124.793 6.946C127.112 8.91837 128.504 12.0288 128.504 16.78H132.504C132.504 11.2179 130.84 6.8383 127.384 3.899C123.989 1.01176 119.194 -0.199997 113.518 -0.199997V3.8ZM128.504 16.78C128.504 21.3638 126.473 24.5031 123.659 26.4848L125.962 29.7552C129.775 27.0702 132.504 22.7428 132.504 16.78H128.504ZM123.054 29.075L130.054 41.955L133.568 40.045L126.568 27.165L123.054 29.075ZM101.997 12.5333V21.2133H105.997V12.5333H101.997ZM103.997 23.2133H112.631V19.2133H103.997V23.2133ZM112.631 23.2133C114.56 23.2133 116.344 22.746 117.662 21.5666C119.017 20.3554 119.577 18.6667 119.577 16.8733H115.577C115.577 17.8333 115.298 18.3146 114.996 18.5851C114.658 18.8873 113.968 19.2133 112.631 19.2133V23.2133ZM119.577 16.8733C119.577 15.0799 119.017 13.3913 117.662 12.1801C116.344 11.0007 114.56 10.5333 112.631 10.5333V14.5333C113.968 14.5333 114.658 14.8593 114.996 15.1616C115.298 15.432 115.577 15.9134 115.577 16.8733H119.577ZM112.631 10.5333H103.997V14.5333H112.631V10.5333ZM188.524 17.9467V19.9467H190.731L190.514 17.7504L188.524 17.9467ZM176.204 17.9467L174.264 18.4317L174.642 19.9467H176.204V17.9467ZM176.204 24.76V22.76H174.634L174.261 24.2847L176.204 24.76ZM188.524 24.76L190.514 24.9549L190.729 22.76H188.524V24.76ZM167.851 40.3067C161.671 40.3067 156.686 38.3584 153.261 35.1098C149.846 31.8703 147.824 27.1895 147.824 21.4H143.824C143.824 28.1639 146.212 33.9364 150.508 38.0119C154.795 42.0783 160.823 44.3067 167.851 44.3067V40.3067ZM147.824 21.4C147.824 15.6105 149.846 10.9297 153.261 7.69021C156.686 4.4416 161.671 2.49333 167.851 2.49333V-1.50667C160.823 -1.50667 154.795 0.721733 150.508 4.78812C146.212 8.86365 143.824 14.6361 143.824 21.4H147.824ZM167.851 2.49333C172.375 2.49333 176.764 3.49114 180.126 5.88033C183.419 8.21978 185.931 12.0347 186.534 18.1429L190.514 17.7504C189.81 10.6053 186.769 5.69355 182.443 2.61967C178.187 -0.40448 172.893 -1.50667 167.851 -1.50667V2.49333ZM188.524 15.9467H176.204V19.9467H188.524V15.9467ZM178.144 17.4616C177.514 14.9407 176.26 12.9304 174.396 11.5709C172.549 10.2233 170.284 9.64667 167.851 9.64667V13.6467C169.664 13.6467 171.039 14.0734 172.039 14.8024C173.022 15.5196 173.821 16.6593 174.264 18.4317L178.144 17.4616ZM167.851 9.64667C161.567 9.64667 156.657 14.4149 156.657 21.4H160.657C160.657 16.5317 163.867 13.6467 167.851 13.6467V9.64667ZM156.657 21.4C156.657 28.385 161.567 33.1533 167.851 33.1533V29.1533C163.867 29.1533 160.657 26.2683 160.657 21.4H156.657ZM167.851 33.1533C170.284 33.1533 172.554 32.5766 174.405 31.2111C176.271 29.8343 177.52 27.7965 178.147 25.2353L174.261 24.2847C173.815 26.1101 173.01 27.269 172.03 27.9922C171.034 28.7267 169.664 29.1533 167.851 29.1533V33.1533ZM176.204 26.76H188.524V22.76H176.204V26.76ZM186.533 24.5651C185.93 30.7305 183.433 34.5662 180.156 36.912C176.809 39.3077 172.425 40.3067 167.851 40.3067V44.3067C172.936 44.3067 178.236 43.2057 182.484 40.1646C186.802 37.0738 189.811 32.1361 190.514 24.9549L186.533 24.5651ZM213.1 40.3067C206.77 40.3067 201.741 38.3525 198.31 35.1077C194.889 31.8725 192.886 27.1952 192.886 21.4H188.886C188.886 28.1581 191.247 33.9341 195.561 38.0139C199.865 42.0842 205.943 44.3067 213.1 44.3067V40.3067ZM192.886 21.4C192.886 15.6048 194.889 10.9275 198.31 7.69228C201.741 4.44753 206.77 2.49333 213.1 2.49333V-1.50667C205.943 -1.50667 199.865 0.715805 195.561 4.78605C191.247 8.86586 188.886 14.6419 188.886 21.4H192.886ZM213.1 2.49333C219.429 2.49333 224.459 4.44753 227.89 7.69228C231.311 10.9275 233.313 15.6048 233.313 21.4H237.313C237.313 14.6419 234.952 8.86586 230.638 4.78605C226.334 0.715805 220.257 -1.50667 213.1 -1.50667V2.49333ZM233.313 21.4C233.313 27.1952 231.311 31.8725 227.89 35.1077C224.459 38.3525 219.429 40.3067 213.1 40.3067V44.3067C220.257 44.3067 226.334 42.0842 230.638 38.0139C234.952 33.9341 237.313 28.1581 237.313 21.4H233.313ZM213.1 33.1533C216.128 33.1533 218.994 32.1027 221.112 30.0354C223.243 27.9552 224.48 24.98 224.48 21.4H220.48C220.48 24.0267 219.593 25.9281 218.318 27.1729C217.029 28.4307 215.205 29.1533 213.1 29.1533V33.1533ZM224.48 21.4C224.48 17.82 223.243 14.8448 221.112 12.7646C218.994 10.6973 216.128 9.64667 213.1 9.64667V13.6467C215.205 13.6467 217.029 14.3693 218.318 15.6271C219.593 16.8719 220.48 18.7733 220.48 21.4H224.48ZM213.1 9.64667C210.071 9.64667 207.206 10.6973 205.088 12.7646C202.957 14.8448 201.72 17.82 201.72 21.4H205.72C205.72 18.7733 206.606 16.8719 207.882 15.6271C209.17 14.3693 210.995 13.6467 213.1 13.6467V9.64667ZM201.72 21.4C201.72 24.98 202.957 27.9552 205.088 30.0354C207.206 32.1027 210.071 33.1533 213.1 33.1533V29.1533C210.995 29.1533 209.17 28.4307 207.882 27.1729C206.606 25.9281 205.72 24.0267 205.72 21.4H201.72ZM237.907 41H235.907V43H237.907V41ZM237.907 1.8V-0.199997H235.907V1.8H237.907ZM254.193 1.8L256.116 1.25003L255.702 -0.199997H254.193V1.8ZM260.587 24.1533L258.664 24.7033L259.079 26.1533H260.587V24.1533ZM261.52 24.1533V26.1533H263.028L263.443 24.7033L261.52 24.1533ZM267.913 1.8V-0.199997H266.405L265.991 1.25003L267.913 1.8ZM284.2 1.8H286.2V-0.199997H284.2V1.8ZM284.2 41V43H286.2V41H284.2ZM271.88 41H269.88V43H271.88V41ZM271.88 23.64H273.88V21.64H271.88V23.64ZM270.853 23.64V21.64H269.348L268.931 23.0871L270.853 23.64ZM265.86 41V43H267.366L267.782 41.5529L265.86 41ZM256.247 41L254.325 41.5529L254.741 43H256.247V41ZM251.253 23.64L253.176 23.0871L252.759 21.64H251.253V23.64ZM250.227 23.64V21.64H248.227V23.64H250.227ZM250.227 41V43H252.227V41H250.227ZM239.907 41V1.8H235.907V41H239.907ZM237.907 3.8H254.193V-0.199997H237.907V3.8ZM252.271 2.34998L258.664 24.7033L262.51 23.6034L256.116 1.25003L252.271 2.34998ZM260.587 26.1533H261.52V22.1533H260.587V26.1533ZM263.443 24.7033L269.836 2.34998L265.991 1.25003L259.597 23.6034L263.443 24.7033ZM267.913 3.8H284.2V-0.199997H267.913V3.8ZM282.2 1.8V41H286.2V1.8H282.2ZM284.2 39H271.88V43H284.2V39ZM273.88 41V23.64H269.88V41H273.88ZM271.88 21.64H270.853V25.64H271.88V21.64ZM268.931 23.0871L263.938 40.4471L267.782 41.5529L272.776 24.1929L268.931 23.0871ZM265.86 39H256.247V43H265.86V39ZM258.169 40.4471L253.176 23.0871L249.331 24.1929L254.325 41.5529L258.169 40.4471ZM251.253 21.64H250.227V25.64H251.253V21.64ZM248.227 23.64V41H252.227V23.64H248.227ZM250.227 39H237.907V43H250.227V39ZM287.454 41H285.454V43H287.454V41ZM287.454 1.8V-0.199997H285.454V1.8H287.454ZM303.74 1.8L305.663 1.25003L305.248 -0.199997H303.74V1.8ZM310.134 24.1533L308.211 24.7033L308.625 26.1533H310.134V24.1533ZM311.067 24.1533V26.1533H312.575L312.99 24.7033L311.067 24.1533ZM317.46 1.8V-0.199997H315.952L315.537 1.25003L317.46 1.8ZM333.747 1.8H335.747V-0.199997H333.747V1.8ZM333.747 41V43H335.747V41H333.747ZM321.427 41H319.427V43H321.427V41ZM321.427 23.64H323.427V21.64H321.427V23.64ZM320.4 23.64V21.64H318.895L318.478 23.0871L320.4 23.64ZM315.407 41V43H316.913L317.329 41.5529L315.407 41ZM305.794 41L303.872 41.5529L304.288 43H305.794V41ZM300.8 23.64L302.722 23.0871L302.306 21.64H300.8V23.64ZM299.774 23.64V21.64H297.774V23.64H299.774ZM299.774 41V43H301.774V41H299.774ZM289.454 41V1.8H285.454V41H289.454ZM287.454 3.8H303.74V-0.199997H287.454V3.8ZM301.817 2.34998L308.211 24.7033L312.057 23.6034L305.663 1.25003L301.817 2.34998ZM310.134 26.1533H311.067V22.1533H310.134V26.1533ZM312.99 24.7033L319.383 2.34998L315.537 1.25003L309.144 23.6034L312.99 24.7033ZM317.46 3.8H333.747V-0.199997H317.46V3.8ZM331.747 1.8V41H335.747V1.8H331.747ZM333.747 39H321.427V43H333.747V39ZM323.427 41V23.64H319.427V41H323.427ZM321.427 21.64H320.4V25.64H321.427V21.64ZM318.478 23.0871L313.485 40.4471L317.329 41.5529L322.322 24.1929L318.478 23.0871ZM315.407 39H305.794V43H315.407V39ZM307.716 40.4471L302.722 23.0871L298.878 24.1929L303.872 41.5529L307.716 40.4471ZM300.8 21.64H299.774V25.64H300.8V21.64ZM297.774 23.64V41H301.774V23.64H297.774ZM299.774 39H287.454V43H299.774V39ZM337.001 1.8V-0.199997H335.001V1.8H337.001ZM350.021 1.8H352.021V-0.199997H350.021V1.8ZM364.674 1.8V-0.199997H362.674V1.8H364.674ZM377.601 1.8H379.601V-0.199997H377.601V1.8ZM357.301 40.3067C350.791 40.3067 346.291 38.9143 343.423 36.3617C340.601 33.8512 339.001 29.894 339.001 23.92H335.001C335.001 30.5927 336.806 35.8287 340.763 39.3499C344.673 42.829 350.323 44.3067 357.301 44.3067V40.3067ZM339.001 23.92V1.8H335.001V23.92H339.001ZM337.001 3.8H350.021V-0.199997H337.001V3.8ZM348.021 1.8V23.5933H352.021V1.8H348.021ZM348.021 23.5933C348.021 26.2727 348.608 28.794 350.222 30.6636C351.883 32.5878 354.331 33.48 357.301 33.48V29.48C355.137 29.48 353.945 28.8555 353.249 28.0498C352.507 27.1893 352.021 25.7673 352.021 23.5933H348.021ZM357.301 33.48C360.269 33.48 362.731 32.5891 364.413 30.6782C366.055 28.8134 366.674 26.2909 366.674 23.5933H362.674C362.674 25.7491 362.173 27.1699 361.411 28.0351C360.69 28.8542 359.465 29.48 357.301 29.48V33.48ZM366.674 23.5933V1.8H362.674V23.5933H366.674ZM364.674 3.8H377.601V-0.199997H364.674V3.8ZM375.601 1.8V23.8267H379.601V1.8H375.601ZM375.601 23.8267C375.601 29.8515 373.997 33.832 371.176 36.3526C368.308 38.9143 363.81 40.3067 357.301 40.3067V44.3067C364.278 44.3067 369.93 42.8291 373.84 39.3357C377.797 35.8013 379.601 30.5418 379.601 23.8267H375.601ZM380.86 41H378.86V43H380.86V41ZM380.86 1.8V-0.199997H378.86V1.8H380.86ZM395.7 1.8L397.404 0.752853L396.818 -0.199997H395.7V1.8ZM408.72 22.9867L407.016 24.0338L407.602 24.9867H408.72V22.9867ZM409.887 22.9867V24.9867H411.887V22.9867H409.887ZM409.887 1.8V-0.199997H407.887V1.8H409.887ZM422.487 1.8H424.487V-0.199997H422.487V1.8ZM422.487 41V43H424.487V41H422.487ZM407.973 41L406.281 42.066L406.869 43H407.973V41ZM394.627 19.8133L396.319 18.7473L395.73 17.8133H394.627V19.8133ZM393.46 19.8133V17.8133H391.46V19.8133H393.46ZM393.46 41V43H395.46V41H393.46ZM382.86 41V1.8H378.86V41H382.86ZM380.86 3.8H395.7V-0.199997H380.86V3.8ZM393.996 2.84715L407.016 24.0338L410.424 21.9395L397.404 0.752853L393.996 2.84715ZM408.72 24.9867H409.887V20.9867H408.72V24.9867ZM411.887 22.9867V1.8H407.887V22.9867H411.887ZM409.887 3.8H422.487V-0.199997H409.887V3.8ZM420.487 1.8V41H424.487V1.8H420.487ZM422.487 39H407.973V43H422.487V39ZM409.665 39.934L396.319 18.7473L392.934 20.8794L406.281 42.066L409.665 39.934ZM394.627 17.8133H393.46V21.8133H394.627V17.8133ZM391.46 19.8133V41H395.46V19.8133H391.46ZM393.46 39H380.86V43H393.46V39ZM425.758 41H423.758V43H425.758V41ZM425.758 1.8V-0.199997H423.758V1.8H425.758ZM438.685 1.8H440.685V-0.199997H438.685V1.8ZM438.685 41V43H440.685V41H438.685ZM427.758 41V1.8H423.758V41H427.758ZM425.758 3.8H438.685V-0.199997H425.758V3.8ZM436.685 1.8V41H440.685V1.8H436.685ZM438.685 39H425.758V43H438.685V39ZM482.826 1.8H484.826V-0.199997H482.826V1.8ZM482.826 12.58V14.58H484.826V12.58H482.826ZM468.733 12.58V10.58H466.733V12.58H468.733ZM468.733 41V43H470.733V41H468.733ZM455.806 41H453.806V43H455.806V41ZM455.806 12.58H457.806V10.58H455.806V12.58ZM441.712 12.58H439.712V14.58H441.712V12.58ZM441.712 1.8V-0.199997H439.712V1.8H441.712ZM480.826 1.8V12.58H484.826V1.8H480.826ZM482.826 10.58H468.733V14.58H482.826V10.58ZM466.733 12.58V41H470.733V12.58H466.733ZM468.733 39H455.806V43H468.733V39ZM457.806 41V12.58H453.806V41H457.806ZM455.806 10.58H441.712V14.58H455.806V10.58ZM443.712 12.58V1.8H439.712V12.58H443.712ZM441.712 3.8H482.826V-0.199997H441.712V3.8ZM528.721 1.8L530.44 2.82156L532.236 -0.199997H528.721V1.8ZM512.668 28.82L510.948 27.7984L510.668 28.2707V28.82H512.668ZM512.668 41V43H514.668V41H512.668ZM499.741 41H497.741V43H499.741V41ZM499.741 28.7733H501.741V28.2246L501.461 27.7527L499.741 28.7733ZM483.734 1.8V-0.199997H480.222L482.014 2.82066L483.734 1.8ZM497.314 1.8L499.052 0.810089L498.477 -0.199997H497.314V1.8ZM505.714 16.5467L503.977 17.5366L504.552 18.5467H505.714V16.5467ZM506.741 16.5467V18.5467H507.904L508.479 17.5366L506.741 16.5467ZM515.141 1.8V-0.199997H513.979L513.403 0.810089L515.141 1.8ZM527.002 0.778442L510.948 27.7984L514.387 29.8416L530.44 2.82156L527.002 0.778442ZM510.668 28.82V41H514.668V28.82H510.668ZM512.668 39H499.741V43H512.668V39ZM501.741 41V28.7733H497.741V41H501.741ZM501.461 27.7527L485.454 0.779335L482.014 2.82066L498.021 29.794L501.461 27.7527ZM483.734 3.8H497.314V-0.199997H483.734V3.8ZM495.577 2.78991L503.977 17.5366L507.452 15.5568L499.052 0.810089L495.577 2.78991ZM505.714 18.5467H506.741V14.5467H505.714V18.5467ZM508.479 17.5366L516.879 2.78991L513.403 0.810089L505.003 15.5568L508.479 17.5366ZM515.141 3.8H528.721V-0.199997H515.141V3.8Z" fill="white"/>
</svg>
